<?xml version="1.0" encoding="UTF-8" standalone="no"?>
<svg
   version="1.1"
   width="246px"
   height="38px"
   style="shape-rendering:geometricPrecision; text-rendering:geometricPrecision; image-rendering:optimizeQuality; fill-rule:evenodd; clip-rule:evenodd"
   id="svg16"
   sodipodi:docname="averox.svg"
   inkscape:version="1.3.2 (091e20e, 2023-11-25, custom)"
   xmlns:inkscape="http://www.inkscape.org/namespaces/inkscape"
   xmlns:sodipodi="http://sodipodi.sourceforge.net/DTD/sodipodi-0.dtd"
   xmlns="http://www.w3.org/2000/svg"
   xmlns:svg="http://www.w3.org/2000/svg">
  <defs
     id="defs16" />
  <sodipodi:namedview
     id="namedview16"
     pagecolor="#ffffff"
     bordercolor="#000000"
     borderopacity="0.25"
     inkscape:showpageshadow="2"
     inkscape:pageopacity="0.0"
     inkscape:pagecheckerboard="0"
     inkscape:deskcolor="#d1d1d1"
     inkscape:zoom="5.703252"
     inkscape:cx="123"
     inkscape:cy="4.997149"
     inkscape:window-width="1920"
     inkscape:window-height="1057"
     inkscape:window-x="-8"
     inkscape:window-y="-8"
     inkscape:window-maximized="1"
     inkscape:current-layer="svg16" />
  <g
     id="g1">
    <path
       style="opacity:0.888"
       fill="#6363fd"
       d="M 29.5,-0.5 C 33.5,-0.5 37.5,-0.5 41.5,-0.5C 44.2272,6.84392 47.0605,14.1773 50,21.5C 52.8004,14.2406 55.3004,6.90724 57.5,-0.5C 61.5,-0.5 65.5,-0.5 69.5,-0.5C 66.3622,8.91414 63.0289,18.2475 59.5,27.5C 56.6062,27.9577 54.1062,27.291 52,25.5C 52.4953,29.5082 53.3286,33.5082 54.5,37.5C 50.8333,37.5 47.1667,37.5 43.5,37.5C 39.0286,24.7515 34.3619,12.0848 29.5,-0.5 Z"
       id="path1" />
  </g>
  <g
     id="g2">
    <path
       style="opacity:0.788"
       fill="#9999ff"
       d="M 44.5,-0.5 C 47.8333,-0.5 51.1667,-0.5 54.5,-0.5C 53.3865,3.7275 51.7198,7.7275 49.5,11.5C 47.2865,7.73823 45.6198,3.73823 44.5,-0.5 Z"
       id="path2" />
  </g>
  <g
     id="g3">
    <path
       style="opacity:0.89"
       fill="#d090ba"
       d="M 12.5,-0.5 C 16.5,-0.5 20.5,-0.5 24.5,-0.5C 23.15,2.57214 21.8167,5.57214 20.5,8.5C 20.5654,8.06178 20.3988,7.72845 20,7.5C 19.4768,9.22265 18.4768,10.556 17,11.5C 14.7021,10.2732 12.5354,8.9399 10.5,7.5C 10.9628,4.77898 11.6295,2.11231 12.5,-0.5 Z"
       id="path3" />
  </g>
  <g
     id="g4">
    <path
       style="opacity:0.884"
       fill="#272827"
       d="M 78.5,3.5 C 81.1194,3.23166 83.6194,3.565 86,4.5C 90.0378,14.0738 94.2045,23.5738 98.5,33C 95.8333,33.6667 93.1667,33.6667 90.5,33C 89.1387,31.4157 88.472,29.5824 88.5,27.5C 84.4862,27.3345 80.4862,27.5012 76.5,28C 75.1387,29.5843 74.472,31.4176 74.5,33.5C 71.4816,33.6646 68.4816,33.498 65.5,33C 70.3208,23.3672 74.6541,13.5338 78.5,3.5 Z M 81.5,14.5 C 82.9334,16.5191 84.2668,18.6857 85.5,21C 83.4213,21.8077 81.4213,21.641 79.5,20.5C 80.3721,18.5504 81.0388,16.5504 81.5,14.5 Z"
       id="path4" />
  </g>
  <g
     id="g5">
    <path
       style="opacity:0.859"
       fill="#272827"
       d="M 94.5,4.5 C 97.2301,3.18344 100.063,3.18344 103,4.5C 105.333,10.1667 107.667,15.8333 110,21.5C 112.466,15.5763 114.632,9.57634 116.5,3.5C 119.167,3.5 121.833,3.5 124.5,3.5C 121.433,13.3648 117.766,23.0315 113.5,32.5C 111.167,33.8333 108.833,33.8333 106.5,32.5C 102.67,22.9838 98.6701,13.6504 94.5,4.5 Z"
       id="path5" />
  </g>
  <g
     id="g6">
    <path
       style="opacity:0.864"
       fill="#272827"
       d="M 127.5,3.5 C 134.833,3.5 142.167,3.5 149.5,3.5C 149.5,5.83333 149.5,8.16667 149.5,10.5C 144.833,10.5 140.167,10.5 135.5,10.5C 135.5,12.1667 135.5,13.8333 135.5,15.5C 139.833,15.5 144.167,15.5 148.5,15.5C 148.5,17.5 148.5,19.5 148.5,21.5C 144.167,21.5 139.833,21.5 135.5,21.5C 135.5,23.5 135.5,25.5 135.5,27.5C 140.5,27.5 145.5,27.5 150.5,27.5C 150.5,29.5 150.5,31.5 150.5,33.5C 142.833,33.5 135.167,33.5 127.5,33.5C 127.5,23.5 127.5,13.5 127.5,3.5 Z"
       id="path6" />
  </g>
  <g
     id="g7">
    <path
       style="opacity:0.86"
       fill="#272827"
       d="M 155.5,3.5 C 160.844,3.33398 166.177,3.50065 171.5,4C 179.083,5.34841 181.916,9.84841 180,17.5C 179.218,20.0758 177.718,22.0758 175.5,23.5C 177.64,26.8073 179.974,29.974 182.5,33C 179.118,33.8236 175.784,33.657 172.5,32.5C 170.588,30.3428 168.921,28.0094 167.5,25.5C 166.311,24.5713 164.978,24.238 163.5,24.5C 163.5,27.5 163.5,30.5 163.5,33.5C 160.833,33.5 158.167,33.5 155.5,33.5C 155.5,23.5 155.5,13.5 155.5,3.5 Z M 163.5,10.5 C 166.187,10.3359 168.854,10.5026 171.5,11C 172.833,13 172.833,15 171.5,17C 168.937,18.0793 166.271,18.5793 163.5,18.5C 163.5,15.8333 163.5,13.1667 163.5,10.5 Z"
       id="path7" />
  </g>
  <g
     id="g8">
    <path
       style="opacity:0.877"
       fill="#272827"
       d="M 193.5,3.5 C 210.843,2.00262 217.676,9.66929 214,26.5C 207.106,34.932 198.939,36.432 189.5,31C 184.755,25.7307 183.255,19.564 185,12.5C 186.688,8.31481 189.521,5.31481 193.5,3.5 Z M 197.5,9.5 C 206.378,10.2507 209.545,14.9174 207,23.5C 201.091,29.3479 196.091,28.6812 192,21.5C 190.873,16.0891 192.707,12.0891 197.5,9.5 Z"
       id="path8" />
  </g>
  <g
     id="g9">
    <path
       style="opacity:0.86"
       fill="#272827"
       d="M 245.5,32.5 C 245.5,32.8333 245.5,33.1667 245.5,33.5C 242.482,33.6646 239.482,33.498 236.5,33C 234.542,30.2518 232.709,27.4185 231,24.5C 229.291,27.4185 227.458,30.2518 225.5,33C 222.5,33.6667 219.5,33.6667 216.5,33C 219.891,28.38 222.891,23.5467 225.5,18.5C 223.271,13.5993 220.605,8.93264 217.5,4.5C 220.106,3.34827 222.773,3.1816 225.5,4C 227.333,6.5 229.167,9 231,11.5C 232.833,9 234.667,6.5 236.5,4C 239.227,3.1816 241.894,3.34827 244.5,4.5C 241.953,9.09869 239.286,13.5987 236.5,18C 239.347,22.9956 242.347,27.829 245.5,32.5 Z"
       id="path9" />
  </g>
  <g
     id="g10">
    <path
       style="opacity:0.892"
       fill="#332ce6"
       d="M 24.5,-0.5 C 24.8333,-0.5 25.1667,-0.5 25.5,-0.5C 26.3012,3.2347 27.3012,6.90137 28.5,10.5C 25.6062,10.0423 23.1062,10.709 21,12.5C 20.5357,11.9056 20.369,11.2389 20.5,10.5C 20.5,9.83333 20.5,9.16667 20.5,8.5C 21.8167,5.57214 23.15,2.57214 24.5,-0.5 Z"
       id="path10" />
  </g>
  <g
     id="g11">
    <path
       style="opacity:0.888"
       fill="#d4819f"
       d="M 10.5,7.5 C 12.5354,8.9399 14.7021,10.2732 17,11.5C 18.4768,10.556 19.4768,9.22265 20,7.5C 20.3988,7.72845 20.5654,8.06178 20.5,8.5C 20.5,9.16667 20.5,9.83333 20.5,10.5C 19.5489,11.9187 19.2155,13.5853 19.5,15.5C 17.6541,18.54 16.3208,21.8733 15.5,25.5C 12.7798,22.7765 9.7798,20.4432 6.5,18.5C 7.06533,14.4632 8.39867,10.7966 10.5,7.5 Z"
       id="path11" />
  </g>
  <g
     id="g12">
    <path
       style="opacity:0.92"
       fill="#5452f7"
       d="M 20.5,10.5 C 20.369,11.2389 20.5357,11.9056 21,12.5C 23.1062,10.709 25.6062,10.0423 28.5,10.5C 30.0722,13.318 31.4055,16.318 32.5,19.5C 28.5,19.5 24.5,19.5 20.5,19.5C 19.7659,18.2921 19.4326,16.9587 19.5,15.5C 19.2155,13.5853 19.5489,11.9187 20.5,10.5 Z"
       id="path12" />
  </g>
  <g
     id="g13">
    <path
       style="opacity:0.835"
       fill="#cc99cc"
       d="M 24.5,37.5 C 20.8333,37.5 17.1667,37.5 13.5,37.5C 14.7726,33.3522 16.4393,29.3522 18.5,25.5C 20.4977,29.4954 22.4977,33.4954 24.5,37.5 Z"
       id="path13" />
  </g>
  <g
     id="g14">
    <path
       style="opacity:0.888"
       fill="#6464fe"
       d="M 20.5,19.5 C 24.5,19.5 28.5,19.5 32.5,19.5C 34.7015,25.4379 36.7015,31.4379 38.5,37.5C 34.5,37.5 30.5,37.5 26.5,37.5C 24.7015,31.4379 22.7015,25.4379 20.5,19.5 Z"
       id="path14" />
  </g>
  <g
     id="g15">
    <path
       style="opacity:0.885"
       fill="#413ded"
       d="M 59.5,27.5 C 58.0991,30.7036 57.0991,34.0369 56.5,37.5C 55.8333,37.5 55.1667,37.5 54.5,37.5C 53.3286,33.5082 52.4953,29.5082 52,25.5C 54.1062,27.291 56.6062,27.9577 59.5,27.5 Z"
       id="path15" />
  </g>
  <g
     id="g16">
    <path
       style="opacity:0.946"
       fill="#d97182"
       d="M 6.5,18.5 C 9.7798,20.4432 12.7798,22.7765 15.5,25.5C 13.8333,29.5 12.1667,33.5 10.5,37.5C 6.83333,37.5 3.16667,37.5 -0.5,37.5C -0.5,36.5 -0.5,35.5 -0.5,34.5C 1.83333,29.1667 4.16667,23.8333 6.5,18.5 Z"
       id="path16" />
  </g>
</svg>
